# xmcd
#
# Track frame offsets:
# 150
# 20448
# 37389
# 53144
# 71910
# 88831
# 105832
# 125573
# 150301
# 167804
# 188007
# 204046
# 221708
# 245913
# 262601
# 285525
# 303093
#
# Disc length: 4774 seconds
#
# Revision: 0
# Processed by: cddbd v1.5.2PL0 Copyright (c) Steve Scherf et al.
# Submitted via: Audion 3.0.2 (http://www.panic.com/audion/)
#
DISCID=e812a411
DTITLE=n - the nerd and neptunes
DYEAR=1900
DGENRE=
TTITLE0=,
TTITLE1=,
TTITLE2=,
TTITLE3=,
TTITLE4=,
TTITLE5=,
TTITLE6=,
TTITLE7=,
TTITLE8=,
TTITLE9=,
TTITLE10=,
TTITLE11=,
TTITLE12=,
TTITLE13=,
TTITLE14=,
TTITLE15=,
TTITLE16=,
EXTD=
EXTT0=
EXTT1=
EXTT2=
EXTT3=
EXTT4=
EXTT5=
EXTT6=
EXTT7=
EXTT8=
EXTT9=
EXTT10=
EXTT11=
EXTT12=
EXTT13=
EXTT14=
EXTT15=
EXTT16=
PLAYORDER=
